<svg width="203" height="43" viewBox="0 0 203 43" fill="none" xmlns="http://www.w3.org/2000/svg">
<path d="M69.814 37.432C67.582 37.432 65.638 37.078 63.982 36.37C62.338 35.662 60.97 34.69 59.878 33.454C58.798 32.218 57.988 30.802 57.448 29.206C56.908 27.61 56.638 25.924 56.638 24.148C56.638 21.664 57.136 19.42 58.132 17.416C59.14 15.4 60.61 13.804 62.542 12.628C64.486 11.44 66.868 10.846 69.688 10.846C71.824 10.846 73.702 11.188 75.322 11.872C76.954 12.556 78.316 13.51 79.408 14.734C80.512 15.946 81.34 17.356 81.892 18.964C82.444 20.572 82.72 22.3 82.72 24.148C82.72 26.68 82.216 28.948 81.208 30.952C80.2 32.956 78.73 34.54 76.798 35.704C74.878 36.856 72.55 37.432 69.814 37.432ZM69.724 33.868C71.2 33.868 72.478 33.604 73.558 33.076C74.638 32.548 75.532 31.828 76.24 30.916C76.948 30.004 77.47 28.966 77.806 27.802C78.154 26.638 78.328 25.42 78.328 24.148C78.328 22.78 78.142 21.508 77.77 20.332C77.398 19.156 76.846 18.124 76.114 17.236C75.394 16.348 74.5 15.658 73.432 15.166C72.364 14.662 71.128 14.41 69.724 14.41C68.272 14.41 67.006 14.668 65.926 15.184C64.846 15.7 63.94 16.414 63.208 17.326C62.488 18.238 61.948 19.276 61.588 20.44C61.228 21.604 61.048 22.84 61.048 24.148C61.048 25.444 61.222 26.674 61.57 27.838C61.918 29.002 62.446 30.04 63.154 30.952C63.874 31.852 64.78 32.566 65.872 33.094C66.964 33.61 68.248 33.868 69.724 33.868ZM90.8886 37C90.5286 35.872 90.1686 34.744 89.8086 33.616C89.4486 32.488 89.0826 31.348 88.7106 30.196L87.6846 27.01C87.2526 25.678 86.8266 24.364 86.4066 23.068C85.9986 21.76 85.5786 20.44 85.1466 19.108L89.2326 18.964C89.6166 20.356 90.0246 21.814 90.4566 23.338C90.8886 24.862 91.2966 26.32 91.6806 27.712L93.1566 32.95H93.4806L94.9026 27.604C95.2866 26.188 95.6646 24.778 96.0366 23.374C96.4206 21.97 96.8046 20.548 97.1886 19.108H100.843C101.227 20.476 101.611 21.88 101.995 23.32C102.391 24.748 102.775 26.164 103.147 27.568L104.623 32.95H104.947L106.441 27.478C106.813 26.11 107.203 24.682 107.611 23.194C108.019 21.706 108.391 20.344 108.727 19.108H112.849C112.429 20.428 112.003 21.748 111.571 23.068C111.151 24.376 110.731 25.69 110.311 27.01L109.303 30.16C108.931 31.312 108.559 32.464 108.187 33.616C107.827 34.768 107.467 35.896 107.107 37H102.679C102.319 35.728 101.941 34.414 101.545 33.058C101.149 31.69 100.771 30.382 100.411 29.134L99.0246 24.364H98.6826L97.3326 29.206C96.9846 30.43 96.6186 31.72 96.2346 33.076C95.8626 34.42 95.4966 35.728 95.1366 37H90.8886ZM116.377 37C116.377 35.692 116.377 34.426 116.377 33.202C116.377 31.978 116.377 30.628 116.377 29.152V27.352C116.377 26.02 116.377 24.664 116.377 23.284C116.377 21.892 116.377 20.5 116.377 19.108L119.671 18.892L119.815 22.132H120.193C120.577 21.58 121.063 21.04 121.651 20.512C122.251 19.972 122.947 19.528 123.739 19.18C124.531 18.832 125.437 18.658 126.457 18.658C128.317 18.658 129.691 19.198 130.579 20.278C131.479 21.358 131.929 22.942 131.929 25.03C131.929 25.81 131.929 26.518 131.929 27.154C131.929 27.778 131.929 28.444 131.929 29.152C131.929 30.592 131.929 31.936 131.929 33.184C131.929 34.42 131.929 35.692 131.929 37H128.077C128.077 35.692 128.077 34.426 128.077 33.202C128.077 31.966 128.077 30.682 128.077 29.35V26.146C128.077 24.85 127.855 23.872 127.411 23.212C126.967 22.552 126.151 22.222 124.963 22.222C124.267 22.222 123.631 22.366 123.055 22.654C122.479 22.93 121.957 23.308 121.489 23.788C121.021 24.256 120.601 24.778 120.229 25.354V29.35C120.229 30.73 120.229 32.026 120.229 33.238C120.229 34.438 120.229 35.692 120.229 37H116.377ZM137.355 37C137.355 35.584 137.355 34.222 137.355 32.914C137.355 31.606 137.355 30.154 137.355 28.558V19.918C137.355 18.286 137.355 16.804 137.355 15.472C137.355 14.14 137.355 12.76 137.355 11.332H141.585C141.585 12.76 141.585 14.14 141.585 15.472C141.585 16.804 141.585 18.286 141.585 19.918V27.892C141.585 29.488 141.585 30.946 141.585 32.266C141.585 33.574 141.585 34.93 141.585 36.334L140.055 33.274H144.879C146.199 33.274 147.363 33.274 148.371 33.274C149.391 33.274 150.333 33.274 151.197 33.274C152.061 33.274 152.949 33.274 153.861 33.274V37H137.355ZM162.04 37.378C161.02 37.378 160.108 37.174 159.304 36.766C158.5 36.346 157.864 35.746 157.396 34.966C156.94 34.174 156.712 33.214 156.712 32.086C156.712 31.09 156.88 30.256 157.216 29.584C157.564 28.9 158.02 28.342 158.584 27.91C159.148 27.478 159.778 27.142 160.474 26.902C161.17 26.662 161.872 26.488 162.58 26.38L167.89 25.552C167.938 24.556 167.788 23.794 167.44 23.266C167.104 22.738 166.624 22.378 166 22.186C165.388 21.994 164.692 21.898 163.912 21.898C163.504 21.898 163.06 21.928 162.58 21.988C162.112 22.048 161.614 22.15 161.086 22.294C160.57 22.426 160.024 22.594 159.448 22.798C158.884 22.99 158.302 23.224 157.702 23.5L157.486 20.08C157.93 19.9 158.428 19.726 158.98 19.558C159.532 19.39 160.126 19.24 160.762 19.108C161.41 18.964 162.076 18.856 162.76 18.784C163.444 18.712 164.14 18.676 164.848 18.676C166.264 18.676 167.476 18.886 168.484 19.306C169.492 19.726 170.266 20.398 170.806 21.322C171.346 22.234 171.616 23.422 171.616 24.886C171.616 25.462 171.616 26.176 171.616 27.028C171.616 27.88 171.616 28.672 171.616 29.404V31.564C171.616 32.416 171.616 33.28 171.616 34.156C171.616 35.032 171.616 35.98 171.616 37H168.142L167.926 34.624H167.584C167.236 35.068 166.798 35.5 166.27 35.92C165.754 36.34 165.136 36.688 164.416 36.964C163.708 37.24 162.916 37.378 162.04 37.378ZM163.3 34.318C163.876 34.318 164.44 34.192 164.992 33.94C165.556 33.676 166.078 33.304 166.558 32.824C167.038 32.344 167.452 31.762 167.8 31.078V27.91C167.62 28.018 167.386 28.12 167.098 28.216C166.822 28.312 166.402 28.42 165.838 28.54C165.274 28.66 164.482 28.81 163.462 28.99C162.874 29.086 162.37 29.26 161.95 29.512C161.53 29.764 161.2 30.094 160.96 30.502C160.732 30.898 160.618 31.372 160.618 31.924C160.618 32.8 160.882 33.418 161.41 33.778C161.95 34.138 162.58 34.318 163.3 34.318ZM186.173 37.432C185.345 37.432 184.589 37.318 183.905 37.09C183.233 36.874 182.615 36.562 182.051 36.154C181.499 35.746 180.995 35.248 180.539 34.66H180.215L179.837 37H176.741C176.741 35.692 176.741 34.426 176.741 33.202C176.741 31.978 176.741 30.628 176.741 29.152V19.234C176.741 17.734 176.741 16.27 176.741 14.842C176.741 13.414 176.741 12.016 176.741 10.648L180.593 10.234C180.593 11.674 180.593 13.132 180.593 14.608C180.593 16.072 180.593 17.614 180.593 19.234V21.034H180.953C181.277 20.59 181.691 20.188 182.195 19.828C182.711 19.456 183.293 19.168 183.941 18.964C184.601 18.76 185.321 18.658 186.101 18.658C187.721 18.658 189.089 19.066 190.205 19.882C191.333 20.698 192.185 21.814 192.761 23.23C193.349 24.646 193.643 26.236 193.643 28C193.643 29.668 193.367 31.222 192.815 32.662C192.275 34.09 191.453 35.242 190.349 36.118C189.245 36.994 187.853 37.432 186.173 37.432ZM184.859 34.066C185.975 34.066 186.893 33.784 187.613 33.22C188.333 32.644 188.861 31.9 189.197 30.988C189.533 30.064 189.701 29.08 189.701 28.036C189.701 26.944 189.521 25.948 189.161 25.048C188.813 24.136 188.279 23.41 187.559 22.87C186.839 22.33 185.921 22.06 184.805 22.06C184.253 22.06 183.713 22.144 183.185 22.312C182.669 22.468 182.189 22.708 181.745 23.032C181.301 23.344 180.917 23.74 180.593 24.22V31.492C180.905 32.02 181.265 32.476 181.673 32.86C182.081 33.244 182.549 33.544 183.077 33.76C183.605 33.964 184.199 34.066 184.859 34.066Z" fill="black"/>
<path d="M31.1241 23.1369C31.1241 19.8057 28.2983 17.1044 24.8137 17.1044C23.1402 17.1044 21.5348 17.7402 20.351 18.8707C19.1684 20.0024 18.5033 21.5371 18.5033 23.1369C18.5033 24.7367 19.1684 26.2714 20.351 27.4031C21.5348 28.5336 23.1402 29.1694 24.8137 29.1694C26.4872 29.1694 28.0926 28.5336 29.2764 27.4031C30.459 26.2714 31.1241 24.7367 31.1241 23.1369ZM24.8137 18.481C27.5032 18.481 29.6841 20.5658 29.6841 23.1369C29.6841 25.708 27.5032 27.7928 24.8137 27.7928C22.1242 27.7928 19.9434 25.708 19.9434 23.1369C19.9434 20.5658 22.1242 18.481 24.8137 18.481Z" fill="black" stroke="black" stroke-miterlimit="10"/>
<path d="M40.5472 16.023C42.4543 14.1999 42.4543 11.2447 40.5481 9.42238C39.6325 8.54707 38.3902 8.05567 37.0953 8.05482C35.8004 8.05567 34.5582 8.54707 33.6425 9.42238C31.7363 11.2447 31.7363 14.1999 33.6425 16.0222C34.5582 16.8975 35.8004 17.3889 37.0953 17.3898C38.3902 17.3889 39.6325 16.8975 40.5472 16.023ZM39.678 10.2525C41.105 11.6166 41.105 13.8279 39.678 15.1921C38.2519 16.5554 35.9387 16.5554 34.5118 15.1912C33.8273 14.5369 33.4426 13.6488 33.4426 12.7223C33.4426 11.7958 33.8273 10.9077 34.5118 10.2533C35.9387 8.88918 38.2519 8.88918 39.678 10.2525Z" fill="black" stroke="black" stroke-miterlimit="10"/>
<path d="M34.2621 14.9655L29.4877 19.5297C29.2199 19.7856 29.2199 20.0416 29.4877 20.2975C29.7554 20.5535 30.0231 20.5535 30.2908 20.2975L35.0653 15.7333L34.2621 14.9655Z" fill="black" stroke="black" stroke-miterlimit="10"/>
<path d="M20.0191 5.82378C18.4721 3.71176 15.4278 3.19859 13.2185 4.67744C12.1588 5.38677 11.4368 6.47095 11.2111 7.68989C10.9871 8.90912 11.2776 10.164 12.0196 11.177C13.5666 13.289 16.611 13.8022 18.8192 12.324C19.88 11.614 20.6019 10.5298 20.8276 9.31088C21.0516 8.09165 20.7611 6.8368 20.0191 5.82378ZM13.9308 5.64994C15.5787 4.54686 17.8479 4.92936 19.0018 6.50473C20.155 8.07912 19.7549 10.2484 18.1069 11.3515C16.46 12.4539 14.1908 12.0714 13.0369 10.496C11.8838 8.92165 12.2839 6.75234 13.9308 5.64994Z" fill="black" stroke="black" stroke-miterlimit="10"/>
<path d="M17.6453 12.1743L19.9602 15.6009C20.14 15.8669 20.3582 15.9068 20.6149 15.7205C20.8716 15.5342 20.9101 15.308 20.7304 15.042L18.4154 11.6154L17.6453 12.1743Z" fill="black" stroke="black" stroke-miterlimit="10"/>
<path d="M6.22079 18.4344C3.52537 18.3444 1.2645 20.3599 1.17038 22.9366C1.12523 24.1725 1.5965 25.3762 2.47897 26.2821C3.36275 27.1869 4.5859 27.7203 5.88001 27.7635C8.57416 27.8534 10.835 25.8379 10.9291 23.2624C10.9743 22.0253 10.503 20.8216 9.62056 19.9157C8.73678 19.0109 7.51363 18.4776 6.22079 18.4344ZM2.356 22.9762C2.42727 21.0253 4.13859 19.4997 6.17938 19.5678C8.21892 19.6359 9.81475 21.2719 9.74348 23.2228C9.67226 25.1726 7.96094 26.6981 5.92141 26.63C3.88061 26.5619 2.28478 24.9259 2.356 22.9762Z" fill="black" stroke="black" stroke-miterlimit="10"/>
<path d="M10.1736 24.2227H15.6636C16.1264 24.2227 16.3578 24.0015 16.3578 23.5591C16.3578 23.1168 16.1264 22.8956 15.6636 22.8956H10.1736V24.2227Z" fill="black" stroke="black" stroke-miterlimit="10"/>
<path d="M19.786 34.3997L23.3766 28.4544C23.608 28.0713 23.5233 27.7691 23.1225 27.5479C22.7217 27.3267 22.4057 27.4077 22.1743 27.7908L18.5837 33.7361L19.786 34.3997Z" fill="black" stroke="black" stroke-miterlimit="10"/>
<path d="M17.452 32.9294C14.7566 32.8394 12.4957 34.8549 12.4016 37.4316C12.3565 38.6675 12.8277 39.8712 13.7102 40.7771C14.594 41.6819 15.8171 42.2152 17.1112 42.2585C19.8054 42.3484 22.0663 40.3329 22.1603 37.7574C22.2055 36.5203 21.7343 35.3166 20.8518 34.4107C19.968 33.5059 18.7449 32.9725 17.452 32.9294ZM13.5872 37.4712C13.6585 35.5203 15.3698 33.9947 17.4106 34.0628C19.4502 34.1309 21.046 35.7669 20.9747 37.7178C20.9035 39.6675 19.1922 41.1931 17.1526 41.125C15.1118 41.0569 13.516 39.4209 13.5872 37.4712Z" fill="black" stroke="black" stroke-miterlimit="10"/>
<path d="M35.644 33.6063L31.1167 29.2784C30.7895 28.9656 30.4622 28.9656 30.135 29.2784C29.8078 29.5912 29.8078 29.904 30.135 30.2168L34.6623 34.5448L35.644 33.6063Z" fill="black" stroke="black" stroke-miterlimit="10"/>
<path d="M38.5287 32.3442C35.8333 32.2542 33.5724 34.2697 33.4783 36.8452C33.4331 38.0823 33.9044 39.286 34.7869 40.1919C35.6706 41.0967 36.8938 41.63 38.1879 41.6732C40.882 41.7632 43.1429 39.7477 43.237 37.1722C43.2822 35.9351 42.8109 34.7314 41.9285 33.8255C41.0447 32.9207 39.8215 32.3873 38.5287 32.3442ZM34.6639 36.886C34.7352 34.935 36.4465 33.4095 38.4873 33.4776C40.5268 33.5457 42.1226 35.1817 42.0514 37.1326C41.9802 39.0823 40.2688 40.6079 38.2293 40.5398C36.1885 40.4717 34.5927 38.8357 34.6639 36.886Z" fill="black" stroke="black" stroke-miterlimit="10"/>
</svg>
