<svg width="44" height="41" viewBox="0 0 44 41" fill="none" xmlns="http://www.w3.org/2000/svg">
<path d="M31.1241 21.1369C31.1241 17.8057 28.2983 15.1044 24.8137 15.1044C23.1402 15.1044 21.5348 15.7402 20.351 16.8707C19.1684 18.0024 18.5033 19.5371 18.5033 21.1369C18.5033 22.7367 19.1684 24.2714 20.351 25.4031C21.5348 26.5336 23.1402 27.1694 24.8137 27.1694C26.4872 27.1694 28.0926 26.5336 29.2764 25.4031C30.459 24.2714 31.1241 22.7367 31.1241 21.1369ZM24.8137 16.481C27.5032 16.481 29.6841 18.5658 29.6841 21.1369C29.6841 23.708 27.5032 25.7928 24.8137 25.7928C22.1242 25.7928 19.9434 23.708 19.9434 21.1369C19.9434 18.5658 22.1242 16.481 24.8137 16.481Z" fill="white" stroke="white" stroke-miterlimit="10"/>
<path d="M40.5472 14.023C42.4543 12.1999 42.4543 9.24467 40.5481 7.42238C39.6325 6.54707 38.3902 6.05567 37.0953 6.05482C35.8004 6.05567 34.5582 6.54707 33.6425 7.42238C31.7363 9.24467 31.7363 12.1999 33.6425 14.0222C34.5582 14.8975 35.8004 15.3889 37.0953 15.3898C38.3902 15.3889 39.6325 14.8975 40.5472 14.023ZM39.678 8.25248C41.105 9.61663 41.105 11.8279 39.678 13.1921C38.2519 14.5554 35.9387 14.5554 34.5118 13.1912C33.8273 12.5369 33.4426 11.6488 33.4426 10.7223C33.4426 9.79579 33.8273 8.90768 34.5118 8.25333C35.9387 6.88918 38.2519 6.88918 39.678 8.25248Z" fill="white" stroke="white" stroke-miterlimit="10"/>
<path d="M34.2621 12.9655L29.4877 17.5297C29.2199 17.7856 29.2199 18.0416 29.4877 18.2975C29.7554 18.5535 30.0231 18.5535 30.2908 18.2975L35.0653 13.7333L34.2621 12.9655Z" fill="white" stroke="white" stroke-miterlimit="10"/>
<path d="M20.0191 3.82378C18.4721 1.71176 15.4278 1.19859 13.2185 2.67744C12.1588 3.38677 11.4368 4.47095 11.2111 5.68989C10.9871 6.90912 11.2776 8.16396 12.0196 9.17699C13.5666 11.289 16.611 11.8022 18.8192 10.324C19.88 9.614 20.6019 8.52982 20.8276 7.31088C21.0516 6.09165 20.7611 4.8368 20.0191 3.82378ZM13.9308 3.64994C15.5787 2.54686 17.8479 2.92936 19.0018 4.50473C20.155 6.07912 19.7549 8.24843 18.1069 9.35152C16.46 10.4539 14.1908 10.0714 13.0369 8.49603C11.8838 6.92165 12.2839 4.75234 13.9308 3.64994Z" fill="white" stroke="white" stroke-miterlimit="10"/>
<path d="M17.6453 10.1743L19.9602 13.6009C20.14 13.8669 20.3582 13.9068 20.6149 13.7205C20.8716 13.5342 20.9101 13.308 20.7304 13.042L18.4154 9.61536L17.6453 10.1743Z" fill="white" stroke="white" stroke-miterlimit="10"/>
<path d="M6.22079 16.4344C3.52537 16.3444 1.2645 18.3599 1.17038 20.9366C1.12523 22.1725 1.5965 23.3762 2.47897 24.2821C3.36275 25.1869 4.5859 25.7203 5.88001 25.7635C8.57416 25.8534 10.835 23.8379 10.9291 21.2624C10.9743 20.0253 10.503 18.8216 9.62056 17.9157C8.73678 17.0109 7.51363 16.4776 6.22079 16.4344ZM2.356 20.9762C2.42727 19.0253 4.13859 17.4997 6.17938 17.5678C8.21892 17.6359 9.81475 19.2719 9.74348 21.2228C9.67226 23.1726 7.96094 24.6981 5.92141 24.63C3.88061 24.5619 2.28478 22.9259 2.356 20.9762Z" fill="white" stroke="white" stroke-miterlimit="10"/>
<path d="M10.1736 22.2227H15.6636C16.1264 22.2227 16.3578 22.0015 16.3578 21.5591C16.3578 21.1168 16.1264 20.8956 15.6636 20.8956H10.1736V22.2227Z" fill="white" stroke="white" stroke-miterlimit="10"/>
<path d="M19.786 32.3997L23.3766 26.4544C23.608 26.0713 23.5233 25.7691 23.1225 25.5479C22.7217 25.3267 22.4057 25.4077 22.1743 25.7908L18.5837 31.7361L19.786 32.3997Z" fill="white" stroke="white" stroke-miterlimit="10"/>
<path d="M17.452 30.9294C14.7566 30.8394 12.4957 32.8549 12.4016 35.4316C12.3565 36.6675 12.8277 37.8712 13.7102 38.7771C14.594 39.6819 15.8171 40.2152 17.1112 40.2585C19.8054 40.3484 22.0663 38.3329 22.1603 35.7574C22.2055 34.5203 21.7343 33.3166 20.8518 32.4107C19.968 31.5059 18.7449 30.9725 17.452 30.9294ZM13.5872 35.4712C13.6585 33.5203 15.3698 31.9947 17.4106 32.0628C19.4502 32.1309 21.046 33.7669 20.9747 35.7178C20.9035 37.6675 19.1922 39.1931 17.1526 39.125C15.1118 39.0569 13.516 37.4209 13.5872 35.4712Z" fill="white" stroke="white" stroke-miterlimit="10"/>
<path d="M35.644 31.6063L31.1167 27.2784C30.7895 26.9656 30.4622 26.9656 30.135 27.2784C29.8078 27.5912 29.8078 27.904 30.135 28.2168L34.6623 32.5448L35.644 31.6063Z" fill="white" stroke="white" stroke-miterlimit="10"/>
<path d="M38.5287 30.3442C35.8333 30.2542 33.5724 32.2697 33.4783 34.8452C33.4331 36.0823 33.9044 37.286 34.7869 38.1919C35.6706 39.0967 36.8938 39.63 38.1879 39.6732C40.882 39.7632 43.1429 37.7477 43.237 35.1722C43.2822 33.9351 42.8109 32.7314 41.9285 31.8255C41.0447 30.9207 39.8215 30.3873 38.5287 30.3442ZM34.6639 34.886C34.7352 32.935 36.4465 31.4095 38.4873 31.4776C40.5268 31.5457 42.1226 33.1817 42.0514 35.1326C41.9802 37.0823 40.2688 38.6079 38.2293 38.5398C36.1885 38.4717 34.5927 36.8357 34.6639 34.886Z" fill="white" stroke="white" stroke-miterlimit="10"/>
</svg>
